<?xml version="1.0" encoding="iso-8859-1"?>
<!-- Generator: Adobe Illustrator 19.0.0, SVG Export Plug-In . SVG Version: 6.00 Build 0)  -->
<svg version="1.1" id="Capa_1" xmlns="http://www.w3.org/2000/svg" xmlns:xlink="http://www.w3.org/1999/xlink" x="0px" y="0px"
	 viewBox="0 0 477.518 477.518" style="enable-background:new 0 0 477.518 477.518;" xml:space="preserve">
<g>
	<g>
		<g>
			<path d="M129.045,243.457l105.535-75.755c2.392-1.518,5.445-1.518,7.837,0l106.057,75.755v-90.384
				c0.58-12.394-8.997-22.911-21.39-23.491c-0.184-0.009-0.368-0.015-0.553-0.019H150.988
				c-12.404,0.275-22.237,10.553-21.962,22.958c0.004,0.184,0.01,0.368,0.019,0.552V243.457z"/>
			<rect x="212.637" y="51.196" width="52.245" height="62.694"/>
			<path d="M469.682,384.518c-15.445-0.153-30.508,4.807-42.841,14.106c-9.763,7.863-21.946,12.109-34.482,12.016
				c-8.694,0.08-17.285-1.889-25.078-5.747l32.392-107.102l-45.453-31.869l-3.135-1.567l-107.102-74.71v220.473h-5.747l-9.927-0.522
				V189.645L76.278,297.791l33.437,106.58c-7.599,4.418-16.294,6.592-25.078,6.269c-16.718,0-24.555-5.747-33.959-11.494
				c-12.145-9.708-27.294-14.881-42.841-14.629c-4.328,0-7.837,3.509-7.837,7.837s3.509,7.837,7.837,7.837
				c12.55-0.18,24.762,4.075,34.482,12.016c12.172,9.225,27.045,14.183,42.318,14.106c15.547,0.253,30.695-4.92,42.841-14.629
				c9.404-5.747,17.241-11.494,33.959-11.494c12.55-0.18,24.762,4.075,34.482,12.016c12.172,9.225,27.045,14.183,42.318,14.106
				c15.547,0.253,30.695-4.92,42.841-14.629c9.404-5.747,17.241-11.494,33.959-11.494c12.536-0.092,24.718,4.153,34.482,12.016
				c25.463,18.811,60.219,18.811,85.682,0c9.763-7.863,21.946-12.109,34.482-12.016c4.328,0,7.837-3.509,7.837-7.837
				S474.01,384.518,469.682,384.518z"/>
		</g>
	</g>
</g>
<g>
</g>
<g>
</g>
<g>
</g>
<g>
</g>
<g>
</g>
<g>
</g>
<g>
</g>
<g>
</g>
<g>
</g>
<g>
</g>
<g>
</g>
<g>
</g>
<g>
</g>
<g>
</g>
<g>
</g>
</svg>
